<?xml version="1.0" encoding="UTF-8" standalone="no"?>
<svg width="194px" height="104px" viewBox="0 0 194 104" version="1.1" xmlns="http://www.w3.org/2000/svg" xmlns:xlink="http://www.w3.org/1999/xlink" xmlns:sketch="http://www.bohemiancoding.com/sketch/ns">
    <!-- Generator: Sketch 3.2 (9961) - http://www.bohemiancoding.com/sketch -->
    <title>btn_wf_gif_sprite</title>
    <desc>Created with Sketch.</desc>
    <defs></defs>
    <g id="Page-1" stroke="none" stroke-width="1" fill="none" fill-rule="evenodd" sketch:type="MSPage">
        <g id="home" sketch:type="MSArtboardGroup" transform="translate(-490.000000, -87.000000)">
            <g id="Rectangle-5-+-Triangle-1-+-GIF-2" sketch:type="MSLayerGroup" transform="translate(491.000000, 88.000000)">
                <rect id="Rectangle-5" stroke="#FFFFFF" stroke-width="2" opacity="0.3" fill="#000000" sketch:type="MSShapeGroup" x="0" y="0" width="42" height="22" rx="11"></rect>
                <path d="M19.4423828,14.6806641 C19.2054025,15.0452492 18.794111,15.3802068 18.2084961,15.6855469 C17.6228812,15.9908869 16.865239,16.1435547 15.9355469,16.1435547 C14.7460878,16.1435547 13.762862,15.7630246 12.9858398,15.0019531 C12.2088177,14.2408816 11.8203125,13.2565165 11.8203125,12.0488281 L11.8203125,9.99804688 C11.8203125,8.79035854 12.1826136,7.80599339 12.9072266,7.04492188 C13.6318396,6.28385036 14.566075,5.90332031 15.7099609,5.90332031 C16.8492896,5.90332031 17.7447884,6.18359095 18.3964844,6.74414062 C19.0481803,7.3046903 19.3808593,8.02701381 19.3945312,8.91113281 L19.3808594,8.95214844 L18.0957031,8.95214844 C18.0546873,8.3733695 17.8348002,7.89713729 17.4360352,7.5234375 C17.0372701,7.14973771 16.4619178,6.96289062 15.7099609,6.96289062 C14.9488894,6.96289062 14.3359398,7.24771851 13.8710938,7.81738281 C13.4062477,8.38704712 13.1738281,9.10937063 13.1738281,9.984375 L13.1738281,12.0488281 C13.1738281,12.9329471 13.4335912,13.6609672 13.953125,14.2329102 C14.4726588,14.8048531 15.1334595,15.0908203 15.9355469,15.0908203 C16.5006539,15.0908203 16.9632143,15.0156258 17.3232422,14.8652344 C17.68327,14.714843 17.9407544,14.5439463 18.0957031,14.3525391 L18.0957031,12.0898438 L15.9150391,12.0898438 L15.9150391,11.0302734 L19.4423828,11.0302734 L19.4423828,14.6806641 Z M23.1953125,16 L21.8417969,16 L21.8417969,6.046875 L23.1953125,6.046875 L23.1953125,16 Z M31.6171875,11.5976562 L27.078125,11.5976562 L27.078125,16 L25.7314453,16 L25.7314453,6.046875 L32.3144531,6.046875 L32.3144531,7.10644531 L27.078125,7.10644531 L27.078125,10.5380859 L31.6171875,10.5380859 L31.6171875,11.5976562 Z" id="GIF" fill="#FFFFFF" sketch:type="MSShapeGroup"></path>
            </g>
            <rect id="Rectangle-7" stroke="#FFFFFF" stroke-width="2" opacity="0.3" fill="#000000" sketch:type="MSShapeGroup" x="541" y="88" width="42" height="22" rx="11"></rect>
            <path d="M559,104 L559,94 L566,99 L559,104 Z" id="Triangle-3" fill="#FFFFFF" sketch:type="MSShapeGroup"></path>
            <rect id="Rectangle-8" stroke="#FFFFFF" stroke-width="2" opacity="0.5" fill="#000000" sketch:type="MSShapeGroup" x="541" y="128" width="42" height="22" rx="11"></rect>
            <path d="M559,144 L559,134 L566,139 L559,144 Z" id="Triangle-4" fill="#FFFFFF" sketch:type="MSShapeGroup"></path>
            <rect id="Rectangle-9" stroke="#FFFFFF" stroke-width="2" opacity="0.6" fill="#000000" sketch:type="MSShapeGroup" x="541" y="168" width="42" height="22" rx="11"></rect>
            <path d="M559,184 L559,174 L566,179 L559,184 Z" id="Triangle-5" fill="#FFFFFF" sketch:type="MSShapeGroup"></path>
            <rect id="Rectangle-7" stroke="#FFFFFF" stroke-width="2" opacity="0.3" fill="#000000" sketch:type="MSShapeGroup" x="591" y="88" width="42" height="22" rx="11"></rect>
            <rect id="Rectangle-12" stroke="#FFFFFF" stroke-width="2" opacity="0.25" fill="#000000" sketch:type="MSShapeGroup" x="641" y="88" width="42" height="22" rx="11"></rect>
            <rect id="Rectangle-15" fill="#FFFFFF" sketch:type="MSShapeGroup" x="609" y="94" width="2" height="10"></rect>
            <rect id="Rectangle-14" fill="#FFFFFF" sketch:type="MSShapeGroup" x="614" y="94" width="2" height="10"></rect>
            <rect id="Rectangle-10" stroke="#FFFFFF" stroke-width="2" opacity="0.5" fill="#000000" sketch:type="MSShapeGroup" x="591" y="128" width="42" height="22" rx="11"></rect>
            <rect id="Rectangle-17" fill="#FFFFFF" sketch:type="MSShapeGroup" x="609" y="134" width="2" height="10"></rect>
            <rect id="Rectangle-16" fill="#FFFFFF" sketch:type="MSShapeGroup" x="614" y="134" width="2" height="10"></rect>
            <rect id="Rectangle-11" stroke="#FFFFFF" stroke-width="2" opacity="0.6" fill="#000000" sketch:type="MSShapeGroup" x="591" y="168" width="42" height="22" rx="11"></rect>
            <rect id="Rectangle-19" fill="#FFFFFF" sketch:type="MSShapeGroup" x="609" y="174" width="2" height="10"></rect>
            <rect id="Rectangle-18" fill="#FFFFFF" sketch:type="MSShapeGroup" x="614" y="174" width="2" height="10"></rect>
        </g>
    </g>
</svg>